<svg width="529" height="412" viewBox="0 0 529 412" fill="none" xmlns="http://www.w3.org/2000/svg">
<mask id="mask0_14_57" style="mask-type:alpha" maskUnits="userSpaceOnUse" x="0" y="0" width="529" height="412">
<rect width="529" height="412" fill="white"/>
</mask>
<g mask="url(#mask0_14_57)">
<path d="M350.78 102.197C401.208 133.233 463.88 132.593 498.45 165.146C533.02 197.698 539.488 263.443 507.932 293.357C476.377 323.272 406.798 317.356 342.877 340.329C279.083 363.368 220.946 415.296 166.882 411.892C112.818 408.488 62.8251 349.752 50.9787 286.839C39.1324 223.926 65.3055 156.769 100.498 99.2227C135.69 41.6769 179.902 -6.25716 220.973 1.06407C262.17 8.45209 300.353 71.1622 350.78 102.197Z" fill="#FF1F1F" fill-opacity="0.74"/>
<g clip-path="url(#clip0_14_57)">
<path d="M160.708 306C145.983 306 131.28 305.737 116.599 305.211C95.6217 304.46 73.93 303.683 53.7684 292.53C39.6646 284.728 27.1734 272.211 17.6457 256.332C11.2775 245.568 6.60808 233.892 3.80142 221.712C-1.43408 199.536 -1.25575 176.431 4.32141 154.339C6.27586 146.764 8.9702 139.399 12.3658 132.349C27.0688 101.98 53.886 81.5948 85.9415 76.4197C86.2062 76.3854 86.4739 76.3797 86.7399 76.4027C86.884 76.4104 87.0277 76.4186 87.1742 76.4125L87.3628 76.3527C87.8463 76.1851 88.3429 76.058 88.8476 75.9727C138.286 68.6318 190.549 83.485 239.983 118.925C278.206 146.331 328.861 161.089 394.845 164.042L395.782 164.091C414.15 165.143 431.918 172.696 447.166 185.935C462.216 199.001 473.517 216.434 479.845 236.35C480.623 238.778 481.336 241.306 481.965 243.862C482.55 246.238 482.509 248.724 481.845 251.079C481.181 253.434 479.918 255.578 478.177 257.301V257.306L478.013 257.474C477.617 257.867 477.201 258.243 476.775 258.593L476.275 259.005C472.058 262.469 468.728 265.206 464.742 267.332C462.083 268.74 459.256 269.805 456.328 270.5C440.248 274.41 423.919 278.036 407.794 281.276C376.479 287.574 344.339 292.769 312.266 296.717C261.985 302.9 211.37 306.001 160.708 306V306ZM86.365 77.4783C86.2665 77.4773 86.1681 77.484 86.0706 77.4982C54.3148 82.6249 27.7515 102.81 13.1942 132.878C9.83218 139.858 7.1645 147.15 5.22949 154.65C-0.29685 176.547 -0.472959 199.447 4.71597 221.425C7.49515 233.489 12.1193 245.054 18.426 255.714C27.8604 271.438 40.2239 283.829 54.1799 291.548C74.1605 302.602 95.7499 303.375 116.629 304.123C181.93 306.45 247.313 303.612 312.165 295.634C344.217 291.689 376.336 286.497 407.631 280.203C423.745 276.966 440.063 273.343 456.131 269.435C458.989 268.757 461.748 267.718 464.343 266.344C468.248 264.262 471.547 261.551 475.723 258.119L476.224 257.708C476.59 257.407 476.949 257.085 477.292 256.75L477.391 256.647C480.823 253.197 482.158 248.644 481.053 244.158V244.158C480.431 241.629 479.725 239.128 478.955 236.725C466.027 196.041 432.584 167.289 395.736 165.178L394.805 165.129C364.664 163.78 338.289 160.044 314.175 153.704C285.389 146.137 260.259 134.746 239.481 119.849C190.235 84.5441 138.19 69.7462 88.9683 77.0522C88.5086 77.1313 88.0561 77.2483 87.6157 77.402L87.2758 77.4968C87.0827 77.5055 86.8892 77.5032 86.6963 77.4899C86.5827 77.4841 86.4726 77.4783 86.365 77.4783H86.365Z" fill="#F0F0F0"/>
<path d="M152.431 141.498C151.068 140.194 149.674 132.919 147.933 132.181C149.234 135.048 148.29 135.808 148.283 138.955C148.299 140.742 148.09 142.524 147.66 144.259H118.178V121.31C118.178 119.248 118.586 117.206 119.377 115.301C120.168 113.396 121.327 111.665 122.789 110.207C124.251 108.749 125.986 107.593 127.896 106.804C129.806 106.014 131.854 105.608 133.921 105.608C134.71 105.624 135.494 105.738 136.254 105.949C138.788 106.632 141.098 107.967 142.951 109.82C144.805 111.674 146.137 113.981 146.814 116.511C149.062 124.704 152.636 138.343 152.431 141.498Z" fill="#2F2E41"/>
<path d="M119.908 169.729L119.923 151.842L109.381 152.782L113.102 164.063L111.36 192.419C110.516 192.608 109.745 193.038 109.141 193.657C108.537 194.275 108.127 195.056 107.96 195.903C107.794 196.75 107.878 197.627 108.202 198.428C108.527 199.228 109.078 199.917 109.788 200.41C110.498 200.903 111.337 201.18 112.202 201.206C113.067 201.232 113.921 201.007 114.66 200.557C115.399 200.108 115.99 199.453 116.363 198.674C116.735 197.895 116.872 197.024 116.757 196.169L119.908 169.729Z" fill="#FFB6B6"/>
<path d="M140.654 297.551L144.913 297.551L146.939 281.166H140.653L140.654 297.551Z" fill="#FFB6B6"/>
<path d="M139.212 295.456L145.944 295.055V297.932L152.345 302.341C152.661 302.559 152.899 302.872 153.025 303.234C153.15 303.596 153.156 303.989 153.042 304.355C152.927 304.721 152.699 305.04 152.389 305.267C152.08 305.495 151.705 305.617 151.321 305.617H143.306L141.925 302.771L141.385 305.617H138.363L139.212 295.456Z" fill="#2F2E41"/>
<path d="M116.029 297.551L120.288 297.551L122.314 281.166H116.028L116.029 297.551Z" fill="#FFB6B6"/>
<path d="M114.587 295.456L121.319 295.055V297.932L127.72 302.341C128.036 302.559 128.274 302.872 128.399 303.234C128.525 303.596 128.531 303.989 128.416 304.355C128.302 304.721 128.073 305.04 127.764 305.267C127.454 305.495 127.08 305.617 126.696 305.617H118.681L117.299 302.771L116.76 305.617H113.738L114.587 295.456Z" fill="#2F2E41"/>
<path d="M136.862 132.526L128.039 132.698L121.811 139.255L116.818 139.985C114.56 140.316 112.483 141.409 110.936 143.083C109.389 144.757 108.465 146.91 108.318 149.183L109.183 153.921H114.373L117.375 171.504C116.208 174.471 116.128 176.813 118.524 177.733L125.963 191.709L147.933 181.874C149.047 179.963 149.405 178.044 148.266 176.178L149.836 149.263H155.117C155.117 144.229 153.41 139.985 148.394 139.425C146.402 139.21 144.401 139.095 142.398 139.082L136.862 132.526Z" fill="#E6E6E6"/>
<path d="M147.933 181.874C147.933 181.874 126.482 185.67 118.525 177.733C118.525 177.733 117.717 179.101 116.499 181.37C116.149 182.022 115.473 182.464 115.065 183.254C114.694 183.973 113.739 184.856 113.335 185.67C113.009 186.326 113.531 187.182 113.193 187.89C109.118 196.416 104.356 208.442 105.377 216.383C106.035 221.504 107.395 233.421 108.827 246.22C108.939 247.22 108.032 248.504 108.145 249.512C108.251 250.463 109.376 251.136 109.482 252.089C109.552 252.721 108.767 253.367 108.837 253.998C108.914 254.692 109.847 255.371 109.923 256.062C111.885 273.734 113.681 290.233 113.681 290.233H123.714L125.607 252.55L124.06 238.814L127.693 211.034L132.71 237.434L133.355 252.292L138.657 290.923H147.933V253.526L148.625 251.583L147.933 249.091L148.625 246.406L147.933 243.483V181.874Z" fill="#2F2E41"/>
<path d="M139.57 127.423C138.203 129.233 136.259 130.526 134.057 131.087C131.856 131.649 129.528 131.446 127.458 130.511C125.387 129.577 123.698 127.968 122.667 125.948C121.637 123.928 121.326 121.618 121.788 119.398C122.249 117.179 123.454 115.183 125.205 113.738C126.956 112.293 129.148 111.486 131.42 111.45C133.692 111.414 135.909 112.15 137.705 113.538C139.501 114.927 140.77 116.884 141.302 119.087C141.331 119.207 141.355 119.325 141.379 119.449C141.66 120.83 141.644 122.255 141.332 123.629C141.02 125.004 140.42 126.297 139.57 127.423V127.423Z" fill="#FFB6B6"/>
<path d="M137.485 121.731C137.272 120.669 136.736 119.699 135.948 118.953C136.026 119.971 135.885 120.993 135.533 121.952C132.903 122.184 130.261 121.662 127.918 120.447C126.154 119.253 123.908 119.357 121.292 120.447C121.292 119.178 121.543 117.922 122.03 116.75C122.516 115.577 123.23 114.512 124.13 113.615C125.029 112.717 126.097 112.006 127.273 111.52C128.448 111.034 129.708 110.785 130.98 110.785H132.71C135.279 110.785 137.743 111.803 139.56 113.615C141.376 115.427 142.397 117.885 142.398 120.447C140.801 121.019 139.157 121.448 137.485 121.731V121.731Z" fill="#2F2E41"/>
<path d="M61.8011 244.885C77.1719 244.885 89.6323 232.457 89.6323 217.125C89.6323 201.794 77.1719 189.366 61.8011 189.366C46.4304 189.366 33.97 201.794 33.97 217.125C33.97 232.457 46.4304 244.885 61.8011 244.885Z" fill="#F0F0F0"/>
<path d="M239.157 117.519C254.527 117.519 266.988 105.09 266.988 89.7593C266.988 74.4283 254.527 62 239.157 62C223.786 62 211.325 74.4283 211.325 89.7593C211.325 105.09 223.786 117.519 239.157 117.519Z" fill="#F0F0F0"/>
<path d="M460.169 249.239C475.54 249.239 488 236.811 488 221.48C488 206.149 475.54 193.721 460.169 193.721C444.798 193.721 432.338 206.149 432.338 221.48C432.338 236.811 444.798 249.239 460.169 249.239Z" fill="#F0F0F0"/>
<path d="M289.362 92.7866V155.733C289.362 157.04 288.845 158.295 287.923 159.224C287.001 160.154 285.748 160.683 284.438 160.696C284.42 160.698 284.401 160.699 284.383 160.699H277.038C271.161 160.699 265.525 158.37 261.369 154.225C257.213 150.08 254.879 144.458 254.879 138.596V92.7866C254.879 91.4695 255.403 90.2065 256.337 89.2752C257.271 88.3439 258.537 87.8207 259.857 87.8207H262.834C261.455 91.8325 280.168 93.5216 281.196 87.8207H284.383C285.704 87.8207 286.97 88.3439 287.904 89.2752C288.837 90.2065 289.362 91.4696 289.362 92.7866V92.7866Z" fill="#FFC403"/>
<path d="M267.565 83.1138C267.565 82.9413 267.634 82.7759 267.756 82.6539C267.878 82.5319 268.044 82.4632 268.217 82.463H272.654C272.827 82.4635 272.992 82.5323 273.114 82.6543C273.236 82.7763 273.305 82.9415 273.305 83.1138C273.305 83.2861 273.236 83.4513 273.114 83.5733C272.992 83.6953 272.827 83.7641 272.654 83.7646H268.217C268.044 83.7644 267.878 83.6958 267.756 83.5738C267.634 83.4518 267.565 83.2863 267.565 83.1138V83.1138Z" fill="#3F3D56"/>
<path d="M285.907 168.683H257.849C255.672 168.68 253.585 167.817 252.046 166.281C250.507 164.746 249.641 162.665 249.638 160.493V116.491C249.484 116.381 249.359 116.236 249.272 116.067C249.186 115.899 249.141 115.712 249.141 115.523V111.098C249.141 110.909 249.186 110.722 249.272 110.554C249.359 110.386 249.484 110.24 249.638 110.13V108.942C249.484 108.832 249.359 108.687 249.272 108.518C249.186 108.35 249.141 108.163 249.141 107.974V103.549C249.141 103.359 249.186 103.173 249.272 103.005C249.359 102.836 249.484 102.691 249.638 102.581V100.434C249.448 100.332 249.289 100.181 249.179 99.9956C249.068 99.8106 249.01 99.5991 249.011 99.3837V94.9583C249.01 94.7429 249.068 94.5314 249.179 94.3463C249.289 94.1613 249.448 94.0097 249.638 93.9077V88.0257C249.641 85.8544 250.507 83.7728 252.046 82.2375C253.585 80.7022 255.672 79.8387 257.849 79.8362H285.907C288.084 79.8387 290.171 80.7023 291.711 82.2376C293.25 83.7729 294.116 85.8545 294.118 88.0257V100.847C294.266 100.94 294.388 101.068 294.472 101.22C294.557 101.372 294.601 101.543 294.601 101.717V110.155C294.601 110.329 294.557 110.501 294.472 110.653C294.388 110.805 294.266 110.933 294.118 111.026V160.493C294.116 162.665 293.25 164.746 291.711 166.281C290.171 167.817 288.084 168.68 285.907 168.683V168.683ZM257.849 80.9248C255.962 80.9269 254.152 81.6757 252.817 83.0069C251.483 84.3381 250.732 86.1431 250.73 88.0257V94.8337L250.205 94.8539C250.177 94.8549 250.152 94.8662 250.132 94.8857C250.113 94.9051 250.102 94.9311 250.102 94.9583V99.3837C250.102 99.4109 250.113 99.4368 250.133 99.4563C250.152 99.4757 250.177 99.4871 250.205 99.4881L250.73 99.5081V103.345L250.315 103.447C250.292 103.453 250.271 103.466 250.256 103.484C250.241 103.502 250.233 103.525 250.232 103.549V107.974C250.233 107.998 250.241 108.021 250.256 108.039C250.271 108.057 250.292 108.07 250.315 108.076L250.73 108.178V110.894L250.315 110.996C250.292 111.002 250.271 111.015 250.256 111.033C250.241 111.052 250.233 111.074 250.232 111.098V115.523C250.233 115.547 250.241 115.57 250.256 115.588C250.271 115.606 250.291 115.619 250.315 115.625L250.73 115.727V160.493C250.732 162.376 251.483 164.181 252.817 165.512C254.152 166.843 255.962 167.592 257.849 167.594H285.907C287.795 167.592 289.604 166.843 290.939 165.512C292.274 164.181 293.024 162.376 293.027 160.493V110.093H293.51V101.779H293.027V88.0257C293.024 86.1431 292.274 84.3382 290.939 83.007C289.604 81.6758 287.795 80.927 285.907 80.9248L257.849 80.9248Z" fill="#3F3D56"/>
<path d="M275.133 83.7646C275.494 83.7646 275.786 83.4732 275.786 83.1138C275.786 82.7544 275.494 82.463 275.133 82.463C274.773 82.463 274.481 82.7544 274.481 83.1138C274.481 83.4732 274.773 83.7646 275.133 83.7646Z" fill="#3F3D56"/>
<path d="M133.197 209.18H60.1878C59.151 209.178 58.1575 208.766 57.4243 208.034C56.6911 207.303 56.2779 206.312 56.2751 205.278V169.796C56.2778 168.762 56.6908 167.771 57.4239 167.039C58.157 166.308 59.1505 165.896 60.1873 165.893H133.196C134.233 165.896 135.227 166.308 135.96 167.039C136.693 167.77 137.106 168.761 137.109 169.795V205.278C137.106 206.312 136.693 207.303 135.96 208.034C135.227 208.765 134.233 209.177 133.197 209.18Z" fill="white"/>
<path d="M133.197 209.18H60.1878C59.151 209.178 58.1575 208.766 57.4243 208.034C56.6911 207.303 56.2779 206.312 56.2751 205.278V169.796C56.2778 168.762 56.6908 167.771 57.4239 167.039C58.157 166.308 59.1505 165.896 60.1873 165.893H133.196C134.233 165.896 135.227 166.308 135.96 167.039C136.693 167.77 137.106 168.761 137.109 169.795V205.278C137.106 206.312 136.693 207.303 135.96 208.034C135.227 208.765 134.233 209.177 133.197 209.18ZM60.1878 166.982C59.4402 166.984 58.7238 167.281 58.1951 167.809C57.6665 168.336 57.3686 169.051 57.3666 169.796V205.278C57.3687 206.023 57.6667 206.738 58.1955 207.265C58.7242 207.793 59.4407 208.09 60.1884 208.092H133.196C133.943 208.09 134.66 207.792 135.189 207.265C135.717 206.738 136.015 206.023 136.017 205.277V169.796C136.015 169.05 135.717 168.336 135.188 167.808C134.66 167.281 133.943 166.984 133.196 166.982L60.1878 166.982Z" fill="#3F3D56"/>
<path d="M100.605 203.937C86.2063 203.937 71.1922 203.799 65.5902 203.71C64.8532 203.695 64.1513 203.393 63.6344 202.869C63.1175 202.345 62.8266 201.64 62.8237 200.904V171.533C62.824 171.27 62.9288 171.017 63.1153 170.831C63.3017 170.644 63.5546 170.539 63.8186 170.538H129.563C129.827 170.539 130.08 170.643 130.267 170.829C130.454 171.015 130.559 171.267 130.56 171.53V191.458C130.548 194.711 129.258 197.83 126.967 200.145C124.676 202.46 121.566 203.788 118.305 203.842C113.085 203.91 106.902 203.937 100.605 203.937Z" fill="#FFC403"/>
<path d="M125.661 189.627H66.2553C65.7578 189.626 65.2729 189.472 64.8663 189.186C64.4598 188.9 64.1513 188.496 63.9829 188.03L57.2591 169.215C57.1295 168.852 57.0891 168.464 57.1413 168.082C57.1935 167.7 57.3368 167.337 57.5591 167.022C57.7813 166.707 58.0762 166.45 58.4188 166.272C58.7614 166.094 59.1418 166.001 59.528 166L133.784 165.897C134.137 165.897 134.486 165.973 134.806 166.122C135.126 166.271 135.409 166.488 135.636 166.757C135.863 167.027 136.027 167.343 136.118 167.683C136.209 168.024 136.225 168.379 136.163 168.726L136.22 168.75L136.007 169.247L136.005 169.252L127.876 188.169C127.691 188.602 127.382 188.971 126.989 189.23C126.595 189.49 126.133 189.628 125.661 189.627V189.627ZM133.787 166.986L59.5301 167.089C59.3185 167.089 59.1101 167.14 58.9224 167.237C58.7348 167.335 58.5732 167.476 58.4514 167.648C58.3297 167.821 58.2512 168.02 58.2226 168.229C58.1939 168.438 58.2161 168.651 58.287 168.85L65.0106 187.663C65.103 187.919 65.2721 188.14 65.4949 188.297C65.7177 188.454 65.9835 188.538 66.256 188.539H125.661C125.919 188.539 126.172 188.463 126.387 188.322C126.603 188.18 126.772 187.978 126.873 187.74L135.002 168.823L135.402 168.994L135.002 168.823C135.088 168.622 135.123 168.403 135.103 168.186C135.084 167.969 135.011 167.76 134.89 167.578C134.77 167.396 134.606 167.246 134.414 167.143C134.221 167.04 134.006 166.986 133.787 166.986V166.986Z" fill="#3F3D56"/>
<path d="M96.5813 193.723C99.1504 193.723 101.233 191.646 101.233 189.083C101.233 186.521 99.1504 184.444 96.5813 184.444C94.0123 184.444 91.9297 186.521 91.9297 189.083C91.9297 191.646 94.0123 193.723 96.5813 193.723Z" fill="white"/>
<path d="M272.3 153.445C274.869 153.445 276.951 151.367 276.951 148.805C276.951 146.243 274.869 144.165 272.3 144.165C269.731 144.165 267.648 146.243 267.648 148.805C267.648 151.367 269.731 153.445 272.3 153.445Z" fill="white"/>
<path d="M448.234 216.102L435.808 203.866C435.203 203.266 434.486 202.791 433.696 202.467C432.907 202.144 432.061 201.98 431.208 201.983H431.164C430.305 201.986 429.454 202.158 428.661 202.491C427.869 202.823 427.15 203.309 426.548 203.921C423.769 206.725 422.189 210.495 422.139 214.437C422.089 218.38 423.574 222.188 426.28 225.061C426.411 225.203 426.548 225.339 426.684 225.475C427.44 226.224 428.274 226.89 429.172 227.462C431.629 229.045 434.493 229.883 437.418 229.873H437.511C439.518 229.866 441.504 229.462 443.354 228.685C445.204 227.908 446.881 226.772 448.289 225.344C449.508 224.111 450.187 222.445 450.177 220.712C450.167 218.98 449.468 217.322 448.234 216.102V216.102ZM447.514 224.577C445.207 226.895 442.169 228.349 438.913 228.694C435.656 229.039 432.38 228.254 429.636 226.471C428.851 225.953 428.119 225.361 427.448 224.702C424.771 222.065 423.253 218.474 423.23 214.721C423.206 210.968 424.678 207.359 427.323 204.688C427.825 204.177 428.425 203.771 429.086 203.494C429.747 203.216 430.458 203.073 431.175 203.072H431.208C431.918 203.069 432.622 203.206 433.28 203.475C433.937 203.744 434.535 204.14 435.039 204.639L447.465 216.881C448.493 217.895 449.076 219.276 449.085 220.719C449.095 222.162 448.529 223.549 447.514 224.577V224.577Z" fill="#3F3D56"/>
<path d="M407.464 175.944L395.038 163.702C393.815 162.492 392.161 161.815 390.438 161.819H390.4C389.539 161.823 388.687 161.996 387.894 162.33C387.101 162.663 386.381 163.15 385.778 163.762C383.481 166.089 381.991 169.088 381.528 172.321C381.064 175.553 381.651 178.849 383.202 181.724L383.207 181.73C383.847 182.906 384.642 183.991 385.57 184.957C385.674 185.077 385.794 185.197 385.914 185.317C388.768 188.142 392.628 189.723 396.648 189.715H396.746C398.754 189.706 400.74 189.301 402.59 188.523C404.44 187.745 406.117 186.609 407.524 185.18C408.128 184.57 408.606 183.847 408.93 183.052C409.254 182.258 409.418 181.407 409.412 180.55C409.407 179.692 409.232 178.844 408.898 178.053C408.563 177.263 408.076 176.546 407.464 175.944V175.944ZM406.744 184.418C405.438 185.744 403.881 186.798 402.164 187.52C400.447 188.242 398.604 188.618 396.741 188.626H396.648C393.85 188.625 391.115 187.799 388.786 186.251C386.457 184.703 384.639 182.503 383.561 179.928C382.483 177.353 382.192 174.517 382.725 171.777C383.258 169.037 384.592 166.516 386.558 164.53C387.575 163.504 388.959 162.922 390.406 162.913C391.853 162.904 393.244 163.468 394.274 164.481L406.7 176.717C407.728 177.733 408.31 179.115 408.318 180.559C408.326 182.002 407.76 183.39 406.744 184.419L406.744 184.418Z" fill="#3F3D56"/>
<path d="M449.028 219.949L435.329 206.454C434.431 205.571 433.218 205.08 431.957 205.087C430.696 205.095 429.489 205.602 428.602 206.496C427.492 207.614 426.614 208.94 426.018 210.397C425.422 211.854 425.12 213.414 425.129 214.987C425.138 216.561 425.458 218.117 426.07 219.568C426.683 221.018 427.576 222.334 428.698 223.439C429.821 224.545 431.151 225.419 432.612 226.012C434.074 226.605 435.638 226.905 437.216 226.894C438.793 226.883 440.354 226.563 441.807 225.95C443.26 225.338 444.578 224.446 445.686 223.325L449.028 219.949Z" fill="#FFC403"/>
<path d="M408.261 179.788L394.562 166.293C393.663 165.41 392.451 164.919 391.19 164.927C389.928 164.934 388.722 165.441 387.835 166.335C386.725 167.453 385.847 168.779 385.251 170.236C384.655 171.693 384.353 173.253 384.362 174.827C384.37 176.4 384.69 177.957 385.303 179.407C385.915 180.857 386.808 182.173 387.931 183.279C389.053 184.385 390.383 185.259 391.845 185.852C393.306 186.444 394.87 186.744 396.448 186.733C398.026 186.723 399.586 186.402 401.039 185.79C402.493 185.177 403.811 184.285 404.918 183.164L408.261 179.788Z" fill="#FFC403"/>
<path d="M433.975 228.354L433.647 229.214C432.108 228.632 430.617 228.048 429.172 227.462C403.59 217.049 391.377 204.862 383.207 181.73L383.202 181.724C382.814 180.636 382.438 179.522 382.072 178.382L382.934 178.105C383.223 179.2 383.644 180.257 384.19 181.251C384.637 182.519 385.097 183.754 385.57 184.957C393.248 204.481 404.572 215.64 426.28 225.061C427.372 225.535 428.49 226.005 429.636 226.471C430.967 227.336 432.433 227.972 433.975 228.354V228.354Z" fill="#3F3D56"/>
<path d="M394.811 188.724L394.043 189.498L422.386 217.42L423.154 216.645L394.811 188.724Z" fill="#3F3D56"/>
<path d="M154.853 165.588L154.868 147.701L144.326 148.641L148.046 159.922L134.541 180.341C133.697 180.53 132.926 180.96 132.322 181.579C131.719 182.197 131.308 182.978 131.142 183.825C130.975 184.672 131.059 185.549 131.383 186.349C131.708 187.15 132.259 187.838 132.969 188.332C133.679 188.825 134.518 189.102 135.383 189.128C136.248 189.154 137.102 188.929 137.841 188.479C138.58 188.029 139.172 187.375 139.544 186.596C139.916 185.817 140.053 184.946 139.938 184.09L154.853 165.588Z" fill="#FFB6B6"/>
</g>
</g>
<defs>
<clipPath id="clip0_14_57">
<rect width="488" height="244" fill="white" transform="translate(0 62)"/>
</clipPath>
</defs>
</svg>
