<svg width="410" height="369" viewBox="0 0 410 369" fill="none" xmlns="http://www.w3.org/2000/svg">
<g id="work">
<g id="blob-haikei (2) 1">
<g id="Group">
<path id="Vector" d="M346.188 75.0769C377.388 106.077 394.988 150.877 403.288 204.077C411.688 257.177 410.888 318.677 379.688 347.077C348.487 375.377 286.987 370.577 238.587 357.477C190.087 344.377 154.787 323.077 114.287 294.677C73.7875 266.377 28.0875 231.077 10.4875 177.977C-7.21251 124.977 3.0875 54.2769 43.5875 23.2769C84.0875 -7.72312 154.787 0.976881 212.487 13.9769C270.287 26.8769 315.087 44.0769 346.188 75.0769Z" fill="#FF1F1F" fill-opacity="0.74"/>
</g>
</g>
<g id="undraw_hiring_re_yk5n (1) 1" clip-path="url(#clip0_21_4)">
<path id="Vector_2" d="M183.979 283.596H44.6177C42.8632 283.594 41.1811 282.895 39.9405 281.651C38.6998 280.406 38.002 278.72 38 276.961V87.2569C38.002 85.4976 38.6998 83.8109 39.9405 82.5669C41.1811 81.3229 42.8632 80.6231 44.6177 80.6212H183.979C185.734 80.6231 187.416 81.3229 188.656 82.5669C189.897 83.8109 190.595 85.4976 190.597 87.2569V276.961C190.595 278.72 189.897 280.406 188.656 281.651C187.416 282.895 185.734 283.594 183.979 283.596V283.596Z" fill="white"/>
<path id="Vector_3" d="M108.016 129.992C108.016 135.471 106.288 140.809 103.078 145.243C99.8681 149.677 95.3418 152.979 90.1468 154.677C89.9914 154.726 89.8362 154.776 89.6785 154.823C89.0055 155.031 88.3231 155.208 87.6289 155.359C86.3727 155.632 85.0976 155.81 83.8146 155.89C83.257 155.927 82.6962 155.946 82.1322 155.946C79.2181 155.949 76.3246 155.458 73.574 154.493C73.4941 154.465 73.4141 154.436 73.3364 154.408C68.8799 152.794 64.9506 149.985 61.9768 146.286C59.0029 142.587 57.0986 138.14 56.4712 133.431C55.8439 128.722 56.5177 123.93 58.4191 119.578C60.3205 115.226 63.3767 111.481 67.2546 108.751C71.1324 106.021 75.6832 104.411 80.411 104.095C85.1388 103.78 89.8623 104.771 94.0667 106.962C98.2711 109.153 101.795 112.459 104.255 116.52C106.715 120.581 108.016 125.241 108.016 129.992V129.992Z" fill="white"/>
<path id="Vector_4" d="M81.512 147.188C88.4672 147.188 94.1055 141.534 94.1055 134.56C94.1055 127.586 88.4672 121.932 81.512 121.932C74.5569 121.932 68.9186 127.586 68.9186 134.56C68.9186 141.534 74.5569 147.188 81.512 147.188Z" fill="#FFC403"/>
<path id="Vector_5" d="M82.2472 141.364L82.2603 140.892C81.3848 140.868 80.613 140.812 80.033 140.388C79.8685 140.26 79.7334 140.099 79.6367 139.915C79.54 139.73 79.484 139.527 79.4726 139.319C79.4624 139.192 79.4816 139.064 79.5286 138.946C79.5757 138.827 79.6493 138.721 79.7439 138.636C79.963 138.503 80.2139 138.431 80.4701 138.429C80.7264 138.427 80.9785 138.494 81.1999 138.623L81.5893 138.802L80.8426 133.331L80.3764 133.395L81.0115 138.049C80.7515 137.952 80.4715 137.922 80.1971 137.962C79.9226 138.002 79.6624 138.109 79.4401 138.276C79.2906 138.407 79.1733 138.57 79.0973 138.754C79.0214 138.938 78.9889 139.137 79.0024 139.336C79.0161 139.615 79.0906 139.888 79.2207 140.136C79.3508 140.383 79.5333 140.599 79.7554 140.769C80.5006 141.315 81.4691 141.342 82.2472 141.364Z" fill="#2F2E41"/>
<path id="Vector_6" d="M78.0706 133.796H75.5359V134.268H78.0706V133.796Z" fill="#2F2E41"/>
<path id="Vector_7" d="M86.071 133.796H83.5364V134.268H86.071V133.796Z" fill="#2F2E41"/>
<path id="Vector_8" d="M85.09 152.214C85.1234 152.058 85.1407 151.9 85.1418 151.742C85.1409 151.147 84.9051 150.578 84.486 150.158C84.067 149.738 83.499 149.501 82.9064 149.5H79.6121C79.0194 149.501 78.4511 149.737 78.032 150.157C77.6129 150.578 77.3772 151.147 77.3767 151.742C77.3765 151.901 77.3939 152.06 77.4284 152.216C76.1848 152.609 75.0093 153.192 73.9435 153.945C73.7364 154.089 73.5317 154.245 73.3364 154.408C73.4141 154.436 73.4941 154.465 73.574 154.493C76.3246 155.458 79.2181 155.949 82.1322 155.946C82.6969 155.946 83.2577 155.927 83.8146 155.89C85.0976 155.81 86.3727 155.632 87.6289 155.359C88.3231 155.208 89.0055 155.031 89.6785 154.823C88.3471 153.642 86.7841 152.753 85.09 152.214V152.214Z" fill="#2F2E41"/>
<path id="Vector_9" d="M84.6665 155.59C84.3611 155.613 84.0672 155.716 83.8146 155.89C85.0976 155.81 86.3727 155.632 87.629 155.359L84.6665 155.59Z" fill="#2F2E41"/>
<path id="Vector_10" d="M92.9335 131.56L71.0561 123.535C70.8217 123.449 70.6309 123.273 70.5258 123.046C70.4206 122.819 70.4098 122.56 70.4955 122.325L70.5695 121.974C72.2781 117.291 77.9412 114.343 82.6117 116.056L89.3438 118.526C94.0143 120.239 96.0442 125.785 94.3356 130.468L94.1408 130.998C94.0551 131.233 93.8797 131.425 93.6533 131.53C93.4269 131.635 93.168 131.646 92.9335 131.56V131.56Z" fill="#2F2E41"/>
<path id="Vector_11" d="M94.112 132.006C63.6192 133.134 60.9547 129.292 70.2457 123.251L72.2167 119.614L94.8062 127.872L94.112 132.006Z" fill="#2F2E41"/>
<path id="Vector_12" d="M88.1329 117.95C88.3013 117.388 87.5802 116.675 86.5223 116.356C85.4644 116.037 84.4704 116.234 84.302 116.795C84.1337 117.357 84.8548 118.071 85.9126 118.389C86.9705 118.708 87.9646 118.512 88.1329 117.95Z" fill="#2F2E41"/>
<path id="Vector_13" d="M82.1322 156.654C79.1387 156.657 76.1661 156.153 73.3406 155.161L73.095 155.073C67.1766 152.928 62.2086 148.748 59.0745 143.276C55.9404 137.804 54.8435 131.395 55.9787 125.188C57.1139 118.982 60.4078 113.38 65.2744 109.379C70.1411 105.379 76.2651 103.239 82.5574 103.339C88.8497 103.44 94.9023 105.776 99.6389 109.93C104.376 114.085 107.489 119.79 108.426 126.03C109.362 132.269 108.062 138.64 104.755 144.009C101.448 149.378 96.3489 153.396 90.365 155.35C90.1978 155.403 90.0404 155.454 89.8805 155.501C89.2121 155.708 88.503 155.893 87.7786 156.05C86.4873 156.331 85.1767 156.514 83.858 156.596C83.2915 156.635 82.7094 156.654 82.1322 156.654ZM82.1322 104.746C76.2074 104.746 70.4727 106.842 65.9366 110.664C61.4005 114.486 58.3536 119.789 57.3317 125.641C56.3098 131.492 57.3784 137.518 60.3496 142.658C63.3208 147.798 68.0042 151.723 73.5762 153.742L73.8093 153.825C76.4842 154.764 79.2983 155.242 82.1322 155.238C82.6778 155.238 83.2278 155.22 83.767 155.183C85.0158 155.105 86.2569 154.933 87.4797 154.667C88.165 154.518 88.835 154.343 89.4709 154.147C89.6284 154.1 89.7778 154.052 89.9274 154.004C95.6266 152.143 100.477 148.304 103.606 143.178C106.735 138.052 107.938 131.974 106.999 126.038C106.06 120.102 103.039 114.697 98.4813 110.794C93.9232 106.891 88.1261 104.746 82.1322 104.746V104.746Z" fill="#CCCCCC"/>
<path id="Vector_14" d="M183.979 283.596H44.6177C42.8632 283.594 41.1811 282.895 39.9405 281.651C38.6998 280.406 38.002 278.72 38 276.961V87.2569C38.002 85.4976 38.6998 83.8109 39.9405 82.5669C41.1811 81.3229 42.8632 80.6231 44.6177 80.6212H183.979C185.734 80.6231 187.416 81.3229 188.656 82.5669C189.897 83.8109 190.595 85.4976 190.597 87.2569V276.961C190.595 278.72 189.897 280.406 188.656 281.651C187.416 282.895 185.734 283.594 183.979 283.596V283.596ZM44.6177 81.4018C43.0696 81.4036 41.5854 82.021 40.4907 83.1187C39.3961 84.2163 38.7803 85.7046 38.7786 87.2569V276.961C38.7803 278.513 39.3961 280.001 40.4907 281.099C41.5854 282.196 43.0696 282.814 44.6177 282.816H183.979C185.527 282.814 187.011 282.196 188.106 281.099C189.201 280.001 189.816 278.513 189.818 276.961V87.2569C189.816 85.7046 189.201 84.2163 188.106 83.1187C187.011 82.021 185.527 81.4036 183.979 81.4018H44.6177Z" fill="#CCCCCC"/>
<path id="Vector_15" d="M157 129.891H117.566C116.739 129.89 115.947 129.56 115.362 128.973C114.778 128.387 114.45 127.592 114.45 126.763C114.45 125.934 114.778 125.139 115.362 124.552C115.947 123.966 116.739 123.636 117.566 123.635H157C157.41 123.634 157.816 123.715 158.195 123.872C158.574 124.029 158.919 124.259 159.209 124.549C159.499 124.84 159.729 125.185 159.886 125.565C160.043 125.945 160.124 126.352 160.124 126.763C160.124 127.174 160.043 127.581 159.886 127.961C159.729 128.341 159.499 128.686 159.209 128.976C158.919 129.267 158.574 129.497 158.195 129.654C157.816 129.811 157.41 129.892 157 129.891V129.891Z" fill="#E6E6E6"/>
<path id="Vector_16" d="M169.869 140.449H117.566C116.739 140.448 115.947 140.118 115.362 139.531C114.778 138.945 114.45 138.149 114.45 137.321C114.45 136.492 114.778 135.696 115.362 135.11C115.947 134.523 116.739 134.193 117.566 134.192H169.869C170.696 134.193 171.488 134.523 172.073 135.11C172.657 135.696 172.985 136.492 172.985 137.321C172.985 138.149 172.657 138.945 172.073 139.531C171.488 140.118 170.696 140.448 169.869 140.449V140.449Z" fill="#E6E6E6"/>
<path id="Vector_17" d="M156.943 180.942H58.7276C58.3176 180.942 57.9115 180.862 57.5325 180.705C57.1536 180.548 56.8092 180.318 56.5191 180.027C56.229 179.736 55.9989 179.391 55.8418 179.012C55.6848 178.632 55.604 178.225 55.604 177.814C55.604 177.403 55.6848 176.995 55.8418 176.616C55.9989 176.236 56.229 175.891 56.5191 175.6C56.8092 175.31 57.1536 175.079 57.5325 174.922C57.9115 174.765 58.3176 174.685 58.7276 174.685H156.943C157.77 174.686 158.562 175.016 159.146 175.603C159.731 176.19 160.059 176.985 160.059 177.814C160.059 178.643 159.731 179.438 159.146 180.024C158.562 180.611 157.77 180.941 156.943 180.942V180.942Z" fill="#E6E6E6"/>
<path id="Vector_18" d="M169.812 191.5H58.7276C58.3176 191.5 57.9115 191.42 57.5325 191.263C57.1536 191.106 56.8092 190.875 56.5191 190.585C56.229 190.294 55.9989 189.949 55.8418 189.569C55.6848 189.19 55.604 188.782 55.604 188.371C55.604 187.96 55.6848 187.553 55.8418 187.173C55.9989 186.794 56.229 186.449 56.5191 186.158C56.8092 185.867 57.1536 185.637 57.5325 185.48C57.9115 185.323 58.3176 185.243 58.7276 185.243H169.812C170.222 185.243 170.628 185.323 171.007 185.48C171.386 185.637 171.73 185.867 172.02 186.158C172.31 186.449 172.54 186.794 172.697 187.173C172.854 187.553 172.935 187.96 172.935 188.371C172.935 188.782 172.854 189.19 172.697 189.569C172.54 189.949 172.31 190.294 172.02 190.585C171.73 190.875 171.386 191.106 171.007 191.263C170.628 191.42 170.222 191.5 169.812 191.5V191.5Z" fill="#E6E6E6"/>
<path id="Vector_19" d="M156.943 215.765H58.7276C57.9002 215.765 57.1067 215.436 56.5216 214.849C55.9365 214.262 55.6078 213.467 55.6078 212.637C55.6078 211.807 55.9365 211.012 56.5216 210.425C57.1067 209.838 57.9002 209.509 58.7276 209.509H156.943C157.77 209.509 158.564 209.838 159.149 210.425C159.734 211.012 160.063 211.807 160.063 212.637C160.063 213.467 159.734 214.262 159.149 214.849C158.564 215.436 157.77 215.765 156.943 215.765V215.765Z" fill="#E6E6E6"/>
<path id="Vector_20" d="M169.812 226.323H58.7276C57.9002 226.323 57.1067 225.993 56.5216 225.407C55.9365 224.82 55.6078 224.024 55.6078 223.195C55.6078 222.365 55.9365 221.569 56.5216 220.983C57.1067 220.396 57.9002 220.066 58.7276 220.066H169.812C170.639 220.066 171.433 220.396 172.018 220.983C172.603 221.569 172.931 222.365 172.931 223.195C172.931 224.024 172.603 224.82 172.018 225.407C171.433 225.993 170.639 226.323 169.812 226.323V226.323Z" fill="#E6E6E6"/>
<path id="Vector_21" d="M156.943 250.588H58.7276C57.9002 250.588 57.1067 250.259 56.5216 249.672C55.9365 249.086 55.6078 248.29 55.6078 247.46C55.6078 246.631 55.9365 245.835 56.5216 245.248C57.1067 244.662 57.9002 244.332 58.7276 244.332H156.943C157.77 244.332 158.564 244.662 159.149 245.248C159.734 245.835 160.063 246.631 160.063 247.46C160.063 248.29 159.734 249.086 159.149 249.672C158.564 250.259 157.77 250.588 156.943 250.588V250.588Z" fill="#E6E6E6"/>
<path id="Vector_22" d="M169.812 261.146H58.7276C57.9002 261.146 57.1067 260.817 56.5216 260.23C55.9365 259.643 55.6078 258.848 55.6078 258.018C55.6078 257.188 55.9365 256.393 56.5216 255.806C57.1067 255.219 57.9002 254.89 58.7276 254.89H169.812C170.639 254.89 171.433 255.219 172.018 255.806C172.603 256.393 172.931 257.188 172.931 258.018C172.931 258.848 172.603 259.643 172.018 260.23C171.433 260.817 170.639 261.146 169.812 261.146V261.146Z" fill="#E6E6E6"/>
<path id="Vector_23" d="M365.382 235.975L226.021 235.975C224.266 235.973 222.584 235.274 221.344 234.029C220.103 232.785 219.405 231.099 219.403 229.34L219.403 39.6358C219.405 37.8765 220.103 36.1899 221.344 34.9459C222.584 33.7019 224.266 33.0021 226.021 33.0001L365.382 33C367.137 33.002 368.819 33.7017 370.059 34.9457C371.3 36.1897 371.998 37.8764 372 39.6357L372 229.339C371.998 231.099 371.3 232.785 370.06 234.029C368.819 235.273 367.137 235.973 365.382 235.975V235.975Z" fill="white"/>
<path id="Vector_24" d="M365.382 235.975L226.021 235.975C224.266 235.973 222.584 235.274 221.344 234.029C220.103 232.785 219.405 231.099 219.403 229.34L219.403 39.6358C219.405 37.8765 220.103 36.1899 221.344 34.9459C222.584 33.7019 224.266 33.0021 226.021 33.0001L365.382 33C367.137 33.002 368.819 33.7017 370.059 34.9457C371.3 36.1897 371.998 37.8764 372 39.6357L372 229.339C371.998 231.099 371.3 232.785 370.06 234.029C368.819 235.273 367.137 235.973 365.382 235.975V235.975ZM226.021 33.7808C224.473 33.7825 222.989 34.4 221.894 35.4976C220.799 36.5953 220.183 38.0835 220.182 39.6358L220.182 229.34C220.184 230.892 220.799 232.38 221.894 233.478C222.989 234.575 224.473 235.193 226.021 235.195L365.382 235.194C366.93 235.193 368.415 234.575 369.509 233.478C370.604 232.38 371.22 230.892 371.221 229.339L371.221 39.6357C371.22 38.0834 370.604 36.5952 369.509 35.4975C368.414 34.3999 366.93 33.7824 365.382 33.7807L226.021 33.7808Z" fill="#CCCCCC"/>
<path id="Vector_25" d="M289.485 82.1123C289.485 87.2456 287.967 92.2636 285.122 96.5318C282.278 100.8 278.236 104.127 273.506 106.091C268.776 108.055 263.572 108.569 258.551 107.568C253.53 106.566 248.918 104.095 245.298 100.465C241.678 96.835 239.213 92.2104 238.214 87.1758C237.216 82.1412 237.728 76.9226 239.687 72.1801C241.646 67.4376 244.964 63.3841 249.22 60.5322C253.477 57.6803 258.481 56.1581 263.601 56.1581C270.465 56.1603 277.047 58.8954 281.901 63.7623C286.755 68.6292 289.482 75.2295 289.485 82.1123V82.1123Z" fill="white"/>
<path id="Vector_26" d="M275.564 86.5534C275.281 103.153 250.657 103.15 250.377 86.5529C250.66 69.9543 275.283 69.9568 275.564 86.5534Z" fill="#FFC403"/>
<path id="Vector_27" d="M262.47 91.7056L262.457 91.2337C265.701 91.6679 266.4 87.637 263.128 89.144L263.875 83.6723L264.341 83.7363L263.706 88.3908C267.15 87.8767 265.876 92.1772 262.47 91.7056Z" fill="#2F2E41"/>
<path id="Vector_28" d="M269.182 84.1377H266.647V84.6096H269.182V84.1377Z" fill="#2F2E41"/>
<path id="Vector_29" d="M261.181 84.1377H258.647V84.6096H261.181V84.1377Z" fill="#2F2E41"/>
<path id="Vector_30" d="M267.053 104.209C267.547 100.865 263.643 101.526 261.577 101.493C261.244 101.494 260.915 101.57 260.615 101.714C260.315 101.859 260.05 102.069 259.841 102.329C259.632 102.589 259.483 102.892 259.406 103.217C259.328 103.542 259.324 103.88 259.393 104.207C257.794 104.702 256.314 105.521 255.043 106.613C260.399 108.486 266.219 108.551 271.615 106.797C270.3 105.613 268.743 104.729 267.053 104.209Z" fill="#2F2E41"/>
<path id="Vector_31" d="M257.05 80.5808C259.384 79.2283 262.214 80.2659 264.625 80.8332C269.199 82.2431 275.613 80.4776 276.169 75.0141C276.748 69.933 269.816 67.1011 267.6 72.1583L268.245 72.0738C261.06 61.366 248.561 61.7721 248.643 76.4934C248.616 76.9482 249.322 76.9467 249.349 76.4932C249.084 67.8181 254.81 61.8881 262.904 67.463C264.711 68.882 266.305 70.5553 267.636 72.431C268.479 73.3782 268.662 69.299 272.696 70.3674C277.136 72.0922 275.688 78.4672 271.719 79.8667C266.816 82.3786 261.505 77.5082 256.693 79.9693C256.616 80.0184 256.56 80.0957 256.539 80.1849C256.517 80.2741 256.531 80.3683 256.577 80.4477C256.623 80.527 256.698 80.5852 256.786 80.61C256.875 80.6349 256.969 80.6244 257.05 80.5808V80.5808Z" fill="#2F2E41"/>
<path id="Vector_32" d="M263.601 108.774C256.917 108.769 250.48 106.237 245.575 101.684C240.67 97.1304 237.657 90.8905 237.136 84.2084C236.616 77.5262 238.627 70.893 242.768 65.6316C246.909 60.3702 252.875 56.8673 259.478 55.8215C266.08 54.7757 272.833 56.2639 278.39 59.9892C283.946 63.7146 287.898 69.4033 289.458 75.9209C291.017 82.4384 290.069 89.3058 286.802 95.1534C283.535 101.001 278.191 105.399 271.834 107.47C269.175 108.337 266.396 108.778 263.601 108.774ZM263.601 56.866C258.62 56.8653 253.751 58.3456 249.609 61.1199C245.468 63.8941 242.24 67.8376 240.333 72.4516C238.427 77.0655 237.928 82.1428 238.899 87.0411C239.871 91.9395 242.269 96.4389 245.791 99.9704C249.313 103.502 253.8 105.907 258.685 106.881C263.57 107.855 268.634 107.355 273.235 105.443C277.837 103.532 281.77 100.295 284.536 96.1419C287.303 91.989 288.779 87.1066 288.779 82.1124C288.771 75.4189 286.116 69.0018 281.396 64.2688C276.676 59.5358 270.276 56.8735 263.601 56.866V56.866Z" fill="#CCCCCC"/>
<path id="Vector_33" d="M338.403 82.2699L298.969 82.2699C298.142 82.2699 297.348 81.9404 296.763 81.3537C296.178 80.767 295.849 79.9714 295.849 79.1417C295.849 78.3121 296.178 77.5164 296.763 76.9297C297.348 76.3431 298.142 76.0135 298.969 76.0135L338.403 76.0135C339.231 76.0135 340.024 76.3431 340.609 76.9297C341.195 77.5164 341.523 78.312 341.523 79.1417C341.523 79.9713 341.195 80.767 340.609 81.3537C340.024 81.9403 339.231 82.2699 338.403 82.2699V82.2699Z" fill="#E6E6E6"/>
<path id="Vector_34" d="M351.272 92.8276L298.969 92.8276C298.559 92.8281 298.153 92.7476 297.774 92.5906C297.395 92.4336 297.051 92.2033 296.761 91.9128C296.47 91.6222 296.24 91.2772 296.083 90.8974C295.926 90.5176 295.845 90.1105 295.845 89.6994C295.845 89.2883 295.926 88.8812 296.083 88.5014C296.24 88.1216 296.47 87.7766 296.761 87.4861C297.051 87.1955 297.395 86.9652 297.774 86.8082C298.153 86.6512 298.559 86.5707 298.969 86.5712L351.272 86.5712C352.1 86.5712 352.893 86.9007 353.478 87.4874C354.063 88.074 354.392 88.8697 354.392 89.6994C354.392 90.529 354.063 91.3247 353.478 91.9113C352.893 92.498 352.1 92.8276 351.272 92.8276Z" fill="#E6E6E6"/>
<path id="Vector_35" d="M338.346 133.321L240.131 133.321C239.304 133.32 238.512 132.99 237.927 132.403C237.343 131.817 237.015 131.022 237.015 130.193C237.015 129.364 237.343 128.568 237.927 127.982C238.512 127.395 239.304 127.065 240.131 127.064L338.346 127.064C339.174 127.064 339.967 127.394 340.552 127.98C341.137 128.567 341.466 129.363 341.466 130.192C341.466 131.022 341.137 131.818 340.552 132.404C339.967 132.991 339.174 133.321 338.346 133.321V133.321Z" fill="#E6E6E6"/>
<path id="Vector_36" d="M351.215 143.878L240.131 143.878C239.721 143.879 239.315 143.798 238.936 143.641C238.557 143.484 238.212 143.254 237.922 142.964C237.632 142.673 237.402 142.328 237.245 141.948C237.088 141.568 237.007 141.161 237.007 140.75C237.007 140.339 237.088 139.932 237.245 139.552C237.402 139.172 237.632 138.827 237.922 138.537C238.212 138.246 238.557 138.016 238.936 137.859C239.315 137.702 239.721 137.622 240.131 137.622L351.215 137.622C352.042 137.622 352.836 137.952 353.421 138.538C354.006 139.125 354.335 139.92 354.335 140.75C354.335 141.58 354.006 142.375 353.421 142.962C352.836 143.549 352.042 143.878 351.215 143.878V143.878Z" fill="#E6E6E6"/>
<path id="Vector_37" d="M338.346 168.144L240.131 168.144C239.304 168.143 238.512 167.813 237.927 167.226C237.343 166.64 237.015 165.845 237.015 165.016C237.015 164.187 237.343 163.392 237.927 162.805C238.512 162.219 239.304 161.889 240.131 161.888L338.346 161.888C339.174 161.888 339.967 162.217 340.552 162.804C341.137 163.39 341.466 164.186 341.466 165.016C341.466 165.845 341.137 166.641 340.552 167.228C339.967 167.814 339.174 168.144 338.346 168.144Z" fill="#E6E6E6"/>
<path id="Vector_38" d="M351.215 178.702L240.131 178.702C239.721 178.702 239.315 178.622 238.936 178.465C238.557 178.308 238.212 178.077 237.922 177.787C237.632 177.496 237.402 177.151 237.245 176.772C237.088 176.392 237.007 175.985 237.007 175.574C237.007 175.162 237.088 174.755 237.245 174.376C237.402 173.996 237.632 173.651 237.922 173.36C238.212 173.07 238.557 172.839 238.936 172.682C239.315 172.525 239.721 172.445 240.131 172.445L351.215 172.445C352.042 172.445 352.836 172.775 353.421 173.361C354.006 173.948 354.335 174.744 354.335 175.573C354.335 176.403 354.006 177.199 353.421 177.785C352.836 178.372 352.042 178.702 351.215 178.702V178.702Z" fill="#E6E6E6"/>
<path id="Vector_39" d="M338.346 202.967L240.131 202.967C239.303 202.967 238.51 202.638 237.925 202.051C237.34 201.464 237.011 200.669 237.011 199.839C237.011 199.01 237.34 198.214 237.925 197.627C238.51 197.041 239.303 196.711 240.131 196.711L338.346 196.711C339.174 196.711 339.967 197.04 340.552 197.627C341.137 198.214 341.466 199.009 341.466 199.839C341.466 200.669 341.137 201.464 340.552 202.051C339.967 202.638 339.174 202.967 338.346 202.967V202.967Z" fill="#E6E6E6"/>
<path id="Vector_40" d="M351.215 213.525L240.131 213.525C239.303 213.525 238.51 213.195 237.925 212.609C237.34 212.022 237.011 211.226 237.011 210.397C237.011 209.567 237.34 208.772 237.925 208.185C238.51 207.598 239.303 207.269 240.131 207.269L351.215 207.269C352.042 207.269 352.836 207.598 353.421 208.185C354.006 208.771 354.335 209.567 354.335 210.397C354.335 211.226 354.006 212.022 353.421 212.609C352.836 213.195 352.042 213.525 351.215 213.525V213.525Z" fill="#E6E6E6"/>
<path id="Vector_41" d="M281.298 317.556H141.937C140.183 317.554 138.5 316.854 137.26 315.61C136.019 314.366 135.321 312.679 135.319 310.92V121.216C135.321 119.457 136.019 117.77 137.26 116.526C138.5 115.282 140.183 114.582 141.937 114.58H281.298C283.053 114.582 284.735 115.282 285.976 116.526C287.216 117.77 287.914 119.457 287.916 121.216V310.92C287.914 312.679 287.216 314.366 285.976 315.61C284.735 316.854 283.053 317.554 281.298 317.556V317.556Z" fill="white"/>
<path id="Vector_42" d="M153.56 163.418C153.556 166.834 154.226 170.217 155.532 173.372C156.838 176.527 158.754 179.392 161.17 181.8C161.372 182.001 161.579 182.202 161.789 182.397C163.05 183.579 164.427 184.631 165.897 185.538C166.18 185.712 166.462 185.88 166.751 186.043C168.239 186.883 169.806 187.573 171.429 188.103C171.709 188.195 171.994 188.282 172.279 188.362C177.44 189.846 182.933 189.691 188.002 187.919C188.101 187.883 188.2 187.848 188.296 187.812C192.747 186.189 196.667 183.372 199.632 179.67C202.597 175.967 204.492 171.519 205.11 166.811C205.729 162.103 205.048 157.316 203.141 152.969C201.235 148.622 198.175 144.884 194.296 142.159C190.417 139.435 185.867 137.83 181.142 137.519C176.417 137.208 171.696 138.203 167.496 140.395C163.295 142.587 159.774 145.893 157.317 149.952C154.86 154.012 153.561 158.669 153.56 163.418V163.418Z" fill="white"/>
<path id="Vector_43" d="M173.978 176.139C173.99 178.15 173.251 180.092 171.906 181.584C170.575 183.048 168.594 184.02 166.594 183.618C164.753 183.248 163.257 181.634 163.444 179.682C163.475 179.259 163.597 178.849 163.803 178.478C164.009 178.108 164.292 177.787 164.634 177.537C164.976 177.288 165.368 177.117 165.783 177.035C166.198 176.953 166.626 176.963 167.036 177.064C168.785 177.52 169.482 180.047 168.025 181.233C167.675 181.518 167.173 181.02 167.526 180.733C167.743 180.533 167.907 180.282 168.003 180.002C168.099 179.723 168.123 179.423 168.074 179.132C168.024 178.84 167.903 178.566 167.72 178.334C167.538 178.101 167.3 177.919 167.028 177.803C166.708 177.7 166.369 177.671 166.037 177.72C165.704 177.768 165.387 177.891 165.109 178.08C164.831 178.27 164.599 178.52 164.432 178.812C164.265 179.104 164.166 179.431 164.143 179.767C164.027 181.413 165.285 182.652 166.826 182.944C168.494 183.259 170.148 182.403 171.278 181.222C172.573 179.85 173.288 178.028 173.272 176.139C173.275 176.047 173.313 175.96 173.379 175.896C173.445 175.833 173.533 175.797 173.625 175.797C173.716 175.797 173.804 175.833 173.87 175.896C173.936 175.96 173.975 176.047 173.978 176.139V176.139Z" fill="#2F2E41"/>
<path id="Vector_44" d="M180.871 180.639C187.826 180.639 193.464 174.985 193.464 168.011C193.464 161.037 187.826 155.383 180.871 155.383C173.916 155.383 168.277 161.037 168.277 168.011C168.277 174.985 173.916 180.639 180.871 180.639Z" fill="#FFC403"/>
<path id="Vector_45" d="M180.227 173.399L180.213 172.927C181.089 172.903 181.861 172.848 182.441 172.423C182.605 172.296 182.74 172.134 182.837 171.95C182.934 171.766 182.99 171.563 183.001 171.355C183.011 171.227 182.992 171.1 182.945 170.981C182.898 170.863 182.824 170.757 182.73 170.672C182.511 170.538 182.26 170.467 182.004 170.465C181.747 170.462 181.495 170.529 181.274 170.659L180.884 170.838L181.631 165.366L182.097 165.43L181.462 170.084C181.722 169.988 182.002 169.958 182.277 169.997C182.551 170.037 182.811 170.145 183.034 170.311C183.183 170.442 183.301 170.606 183.376 170.79C183.452 170.974 183.485 171.173 183.471 171.371C183.458 171.651 183.383 171.924 183.253 172.171C183.123 172.419 182.941 172.635 182.718 172.804C181.973 173.35 181.005 173.377 180.227 173.399Z" fill="#2F2E41"/>
<path id="Vector_46" d="M186.938 165.831H184.403V166.303H186.938V165.831Z" fill="#2F2E41"/>
<path id="Vector_47" d="M178.937 165.831H176.403V166.303H178.937V165.831Z" fill="#2F2E41"/>
<path id="Vector_48" d="M172.279 188.362C177.44 189.846 182.932 189.691 188.002 187.919C188.101 187.883 188.2 187.848 188.296 187.812C187.102 186.888 185.75 186.188 184.308 185.746C184.41 185.383 184.408 184.998 184.303 184.637C184.16 184.178 183.873 183.777 183.486 183.495C183.098 183.213 182.629 183.064 182.15 183.07H179.082C178.603 183.063 178.135 183.212 177.748 183.494C177.361 183.776 177.075 184.176 176.933 184.634C176.828 184.997 176.826 185.382 176.929 185.746C175.658 186.136 174.457 186.726 173.371 187.494C173.152 187.647 172.94 187.808 172.735 187.975C172.58 188.1 172.427 188.23 172.279 188.362Z" fill="#2F2E41"/>
<path id="Vector_49" d="M190.736 166.671C190.736 168.8 191.781 170.565 193.139 170.871C193.277 170.902 193.418 170.918 193.56 170.919C195.115 170.919 196.384 169.014 196.384 166.671C196.419 165.464 196.035 164.281 195.297 163.326C195.067 163.047 194.785 162.817 194.466 162.649C194.186 162.502 193.876 162.425 193.56 162.424C193.127 162.43 192.706 162.572 192.358 162.83C191.4 163.51 190.736 164.975 190.736 166.671Z" fill="#3F3D56"/>
<path id="Vector_50" d="M165.558 166.671C165.558 168.502 166.33 170.064 167.413 170.661C167.709 170.828 168.043 170.916 168.382 170.919C168.458 170.919 168.533 170.914 168.608 170.904C170.057 170.732 171.206 168.901 171.206 166.672C171.206 164.885 170.469 163.354 169.429 162.729C169.115 162.533 168.752 162.428 168.382 162.424C168.067 162.425 167.756 162.502 167.476 162.649C167.157 162.818 166.873 163.049 166.643 163.328C165.907 164.283 165.524 165.465 165.558 166.671V166.671Z" fill="#3F3D56"/>
<path id="Vector_51" d="M167.589 170.254C167.645 170.254 167.7 170.241 167.75 170.215C167.8 170.189 167.843 170.152 167.875 170.107C167.908 170.061 167.929 170.008 167.938 169.953C167.946 169.897 167.941 169.84 167.923 169.787C167.249 167.776 167.046 165.635 167.33 163.532C167.615 161.429 168.379 159.421 169.564 157.662C170.748 155.903 172.321 154.442 174.161 153.392C176 152.343 178.056 151.732 180.169 151.608C182.282 151.485 184.394 151.851 186.343 152.68C188.292 153.508 190.023 154.776 191.404 156.384C192.784 157.993 193.777 159.899 194.303 161.954C194.829 164.01 194.876 166.159 194.439 168.236C194.42 168.328 194.438 168.423 194.489 168.502C194.541 168.58 194.621 168.635 194.712 168.654C194.804 168.674 194.899 168.656 194.977 168.605C195.056 168.554 195.111 168.474 195.13 168.382C195.59 166.199 195.541 163.939 194.987 161.777C194.434 159.616 193.391 157.612 191.94 155.921C190.488 154.229 188.668 152.897 186.619 152.026C184.57 151.155 182.349 150.769 180.127 150.899C177.906 151.029 175.744 151.671 173.81 152.775C171.877 153.879 170.223 155.416 168.977 157.265C167.732 159.114 166.929 161.226 166.63 163.437C166.331 165.648 166.545 167.899 167.254 170.013C167.278 170.083 167.323 170.144 167.383 170.188C167.443 170.231 167.515 170.254 167.589 170.254V170.254Z" fill="#3F3D56"/>
<path id="Vector_52" d="M187.197 159.83C187.406 160.172 187.493 160.575 187.443 160.973C187.394 161.371 187.211 161.74 186.925 162.02C186.241 162.786 185.151 162.834 184.204 162.692C183.142 162.533 182.015 162.034 180.94 162.37C180.023 162.657 179.369 163.49 178.417 163.7C177.572 163.885 176.562 163.64 176.266 162.737C176.124 162.303 176.806 162.117 176.947 162.549C177.139 163.133 177.966 163.121 178.439 162.959C179.199 162.7 179.784 162.07 180.53 161.768C181.42 161.492 182.372 161.495 183.26 161.776C184.105 161.967 185.076 162.249 185.918 161.893C186.54 161.63 187.035 160.8 186.588 160.187C186.319 159.819 186.931 159.465 187.197 159.829V159.83Z" fill="#2F2E41"/>
<path id="Vector_53" d="M179.444 190.08C176.954 190.082 174.476 189.733 172.083 189.042C171.802 188.963 171.506 188.873 171.21 188.775C169.542 188.231 167.933 187.522 166.405 186.66C166.119 186.498 165.831 186.328 165.527 186.14C164.016 185.209 162.603 184.128 161.307 182.915C161.093 182.715 160.881 182.509 160.674 182.304C156.598 178.23 153.951 172.939 153.13 167.227C152.31 161.515 153.359 155.69 156.122 150.627C158.885 145.565 163.211 141.538 168.452 139.151C173.692 136.765 179.563 136.148 185.183 137.393C190.802 138.638 195.867 141.678 199.617 146.056C203.367 150.434 205.598 155.914 205.976 161.673C206.354 167.432 204.859 173.158 201.714 177.991C198.57 182.825 193.946 186.504 188.538 188.478C188.44 188.513 188.34 188.549 188.239 188.585C185.413 189.578 182.439 190.083 179.444 190.08V190.08ZM179.444 138.171C174.461 138.172 169.59 139.654 165.448 142.432C161.305 145.21 158.078 149.158 156.175 153.776C154.272 158.394 153.778 163.474 154.756 168.373C155.734 173.273 158.139 177.771 161.668 181.299C161.864 181.493 162.066 181.689 162.27 181.88C163.498 183.029 164.837 184.053 166.267 184.935C166.555 185.113 166.826 185.273 167.097 185.425C168.544 186.243 170.068 186.914 171.647 187.429C171.927 187.521 172.203 187.606 172.47 187.681C177.491 189.126 182.836 188.975 187.769 187.251L188.054 187.148C193.617 185.117 198.288 181.187 201.248 176.046C204.208 170.905 205.267 164.883 204.239 159.038C203.212 153.192 200.163 147.896 195.629 144.08C191.094 140.264 185.364 138.172 179.444 138.171L179.444 138.171Z" fill="#CCCCCC"/>
<path id="Vector_54" d="M281.298 317.556H141.937C140.183 317.554 138.5 316.854 137.26 315.61C136.019 314.366 135.321 312.679 135.319 310.92V121.216C135.321 119.457 136.019 117.77 137.26 116.526C138.5 115.282 140.183 114.582 141.937 114.58H281.298C283.053 114.582 284.735 115.282 285.976 116.526C287.216 117.77 287.914 119.457 287.916 121.216V310.92C287.914 312.679 287.216 314.366 285.976 315.61C284.735 316.854 283.053 317.554 281.298 317.556V317.556ZM141.937 115.361C140.389 115.363 138.905 115.98 137.81 117.078C136.715 118.176 136.1 119.664 136.098 121.216V310.92C136.1 312.472 136.715 313.96 137.81 315.058C138.905 316.156 140.389 316.773 141.937 316.775H281.298C282.846 316.773 284.331 316.156 285.425 315.058C286.52 313.96 287.136 312.472 287.137 310.92V121.216C287.136 119.664 286.52 118.176 285.425 117.078C284.331 115.98 282.846 115.363 281.298 115.361H141.937Z" fill="#3F3D56"/>
<path id="Vector_55" d="M254.32 163.85H214.885C214.058 163.85 213.264 163.521 212.679 162.934C212.094 162.347 211.765 161.552 211.765 160.722C211.765 159.892 212.094 159.097 212.679 158.51C213.264 157.923 214.058 157.594 214.885 157.594H254.32C255.147 157.594 255.941 157.923 256.526 158.51C257.111 159.097 257.439 159.892 257.439 160.722C257.439 161.552 257.111 162.347 256.526 162.934C255.941 163.521 255.147 163.85 254.32 163.85V163.85Z" fill="#FFC403"/>
<path id="Vector_56" d="M267.188 174.408H214.885C214.058 174.408 213.264 174.078 212.679 173.492C212.094 172.905 211.765 172.109 211.765 171.28C211.765 170.45 212.094 169.654 212.679 169.068C213.264 168.481 214.058 168.152 214.885 168.152H267.188C268.016 168.152 268.809 168.481 269.394 169.068C269.979 169.654 270.308 170.45 270.308 171.28C270.308 172.109 269.979 172.905 269.394 173.492C268.809 174.078 268.016 174.408 267.188 174.408V174.408Z" fill="#FFC403"/>
<path id="Vector_57" d="M254.262 214.901H156.047C155.219 214.901 154.426 214.572 153.841 213.985C153.256 213.398 152.927 212.603 152.927 211.773C152.927 210.943 153.256 210.148 153.841 209.561C154.426 208.974 155.219 208.645 156.047 208.645H254.262C255.09 208.645 255.883 208.974 256.468 209.561C257.053 210.148 257.382 210.943 257.382 211.773C257.382 212.603 257.053 213.398 256.468 213.985C255.883 214.572 255.09 214.901 254.262 214.901V214.901Z" fill="#CCCCCC"/>
<path id="Vector_58" d="M267.131 225.459H156.047C155.219 225.459 154.426 225.129 153.841 224.543C153.256 223.956 152.927 223.16 152.927 222.331C152.927 221.501 153.256 220.705 153.841 220.119C154.426 219.532 155.219 219.202 156.047 219.202H267.131C267.958 219.202 268.752 219.532 269.337 220.119C269.922 220.705 270.251 221.501 270.251 222.331C270.251 223.16 269.922 223.956 269.337 224.543C268.752 225.129 267.958 225.459 267.131 225.459V225.459Z" fill="#CCCCCC"/>
<path id="Vector_59" d="M254.262 249.724H156.047C155.22 249.723 154.428 249.393 153.843 248.807C153.259 248.22 152.931 247.425 152.931 246.596C152.931 245.767 153.259 244.972 153.843 244.386C154.428 243.799 155.22 243.469 156.047 243.468H254.262C255.09 243.468 255.883 243.798 256.468 244.384C257.053 244.971 257.382 245.767 257.382 246.596C257.382 247.426 257.053 248.222 256.468 248.808C255.883 249.395 255.09 249.724 254.262 249.724V249.724Z" fill="#CCCCCC"/>
<path id="Vector_60" d="M267.131 260.282H156.047C155.22 260.281 154.428 259.951 153.843 259.365C153.259 258.778 152.931 257.983 152.931 257.154C152.931 256.325 153.259 255.53 153.843 254.943C154.428 254.357 155.22 254.027 156.047 254.026H267.131C267.958 254.026 268.752 254.355 269.337 254.942C269.922 255.529 270.251 256.324 270.251 257.154C270.251 257.984 269.922 258.779 269.337 259.366C268.752 259.953 267.958 260.282 267.131 260.282Z" fill="#CCCCCC"/>
<path id="Vector_61" d="M254.262 284.548H156.047C155.219 284.548 154.426 284.218 153.841 283.632C153.256 283.045 152.927 282.249 152.927 281.42C152.927 280.59 153.256 279.794 153.841 279.208C154.426 278.621 155.219 278.291 156.047 278.291H254.262C255.09 278.291 255.883 278.621 256.468 279.208C257.053 279.794 257.382 280.59 257.382 281.42C257.382 282.249 257.053 283.045 256.468 283.632C255.883 284.218 255.09 284.548 254.262 284.548V284.548Z" fill="#CCCCCC"/>
<path id="Vector_62" d="M267.131 295.105H156.047C155.219 295.105 154.426 294.776 153.841 294.189C153.256 293.603 152.927 292.807 152.927 291.977C152.927 291.148 153.256 290.352 153.841 289.765C154.426 289.179 155.219 288.849 156.047 288.849H267.131C267.958 288.849 268.752 289.179 269.337 289.765C269.922 290.352 270.251 291.148 270.251 291.977C270.251 292.807 269.922 293.603 269.337 294.189C268.752 294.776 267.958 295.105 267.131 295.105V295.105Z" fill="#CCCCCC"/>
<path id="Vector_63" d="M279.681 274.358C275.642 274.354 271.641 275.148 267.908 276.695C264.175 278.241 260.783 280.511 257.925 283.373C255.067 286.236 252.8 289.635 251.253 293.377C249.706 297.118 248.91 301.129 248.91 305.179C248.91 309.229 249.706 313.24 251.253 316.982C252.8 320.723 255.067 324.122 257.925 326.985C260.782 329.847 264.175 332.117 267.908 333.664C271.641 335.211 275.642 336.004 279.681 336H279.681C287.824 335.986 295.628 332.732 301.381 326.954C307.133 321.175 310.364 313.344 310.364 305.179C310.364 297.014 307.133 289.183 301.381 283.405C295.628 277.626 287.824 274.373 279.681 274.358V274.358Z" fill="#FFC403"/>
<path id="f276b720-7c73-4755-84a7-b208d54eb1fc" d="M276.765 317.979C275.956 317.981 275.168 317.718 274.521 317.231L274.48 317.201L266.028 310.718C265.238 310.109 264.721 309.212 264.591 308.222C264.462 307.232 264.729 306.231 265.335 305.439C265.94 304.646 266.835 304.128 267.822 303.996C268.809 303.865 269.808 304.132 270.598 304.739L276.073 308.949L289.011 292.024C289.311 291.632 289.685 291.303 290.112 291.055C290.539 290.808 291.01 290.647 291.499 290.583C291.988 290.518 292.485 290.55 292.961 290.678C293.438 290.806 293.884 291.026 294.275 291.327L294.276 291.327L294.277 291.328L294.196 291.44L294.279 291.328C295.068 291.936 295.585 292.834 295.715 293.824C295.845 294.814 295.578 295.815 294.973 296.608L279.756 316.506C279.404 316.964 278.951 317.335 278.433 317.59C277.915 317.845 277.345 317.976 276.768 317.975L276.765 317.979Z" fill="white"/>
</g>
</g>
<defs>
<clipPath id="clip0_21_4">
<rect width="334" height="303" fill="white" transform="translate(38 33)"/>
</clipPath>
</defs>
</svg>
